<svg xmlns="http://www.w3.org/2000/svg"
    width="28" height="28"
    viewBox="0 0 32 32">
    <defs>
        <mask id="mask">
            <rect width="100%" height="100%" fill="white" />

            <path
                style="fill: #000000; color: #00000000"
                d="
                M26.0516448,15.0024454
                C26.2737343,17.3607737 25.6522418,19.740117 24.3019134,21.7021469
                C22.9360627,23.6865051 20.9007194,25.1230424 18.5706896,25.7474006
                C13.164003,27.196117 7.58668957,23.9760573 6.13809255,18.5694902
                C4.68937613,13.1628036 7.90943584,7.58549015 13.316003,6.13677374
                C15.6461523,5.51241553 18.1271075,5.73880359 20.3020329,6.77462448
                C22.4523612,7.79850508 24.1803612,9.54823642 25.1673463,11.7017887
                C25.1815552,11.7330722 25.1814358,11.7686543 25.1668687,11.7996991
                C25.1523015,11.8308633 25.1247194,11.8539081 25.0916448,11.8627439
               
                L23.5526597,12.2751618
                C23.4991672,12.2894902 23.4430478,12.2640573 23.4183314,12.2145051
                C21.658212,8.67552 17.6055552,6.85068418 13.781794,7.8752812
                C9.33367464,9.0671618 6.68471942,13.6554603 7.87660001,18.1035797
                C9.06848061,22.5516991 13.6566597,25.2007737 18.1047791,24.0088931
                C21.9285403,22.9844155 24.525794,19.3776096 24.2806597,15.4328931
                C24.2773164,15.3774902 24.3131373,15.3274603 24.3668687,15.3131319
               
                L25.9056149,14.900714
                C25.938809,14.8918782 25.9741523,14.8979678 26.0023314,14.9176693
                C26.0303911,14.9372513 26.0485403,14.9682961 26.0516448,15.0024454
                Z M10.3511223,17.3694328
                C11.1852715,20.4823881 14.3962566,22.3362388 17.5090924,21.5020896
                L17.9576894,23.1763582
                C13.9217491,24.257791 9.75828646,21.854209 8.67697303,17.8180299
                C7.59554019,13.782209 9.99924168,9.61874627 14.035182,8.53731343
                L14.483779,10.2114627
                C11.3709432,11.0454925 9.51709243,14.256597 10.3511223,17.3694328
                Z"
                />
        </mask>
    </defs>
 
    <path
        mask="url(#mask)"
        style="stroke: currentColor; fill: currentColor;"
        d="
            M15.9650149,4
            C22.5732537,4 27.9300299,9.35689552 27.9300299,15.9650149
            C27.9300299,22.5731343 22.5732537,27.9300299 15.9650149,27.9300299
            C9.35701493,27.9300299 4,22.5731343 4,15.9650149
            C4,9.35689552 9.35701493,4 15.9650149,4
        "
    />
</svg>
