<?xml version="1.0" encoding="UTF-8" standalone="no"?>
<svg
   xmlns:dc="http://purl.org/dc/elements/1.1/"
   xmlns:cc="http://creativecommons.org/ns#"
   xmlns:rdf="http://www.w3.org/1999/02/22-rdf-syntax-ns#"
   xmlns:svg="http://www.w3.org/2000/svg"
   xmlns="http://www.w3.org/2000/svg"
   xmlns:sodipodi="http://sodipodi.sourceforge.net/DTD/sodipodi-0.dtd"
   xmlns:inkscape="http://www.inkscape.org/namespaces/inkscape"
   viewBox="0 0 32 32"
   width="32"
   height="32"
   class="eye-image"
   fill="currentColor"
   version="1.1"
   id="svg32"
   sodipodi:docname="eye-icon.svg"
   inkscape:version="0.92.3 (2405546, 2018-03-11)">
  <metadata
     id="metadata38">
    <rdf:RDF>
      <cc:Work
         rdf:about="">
        <dc:format>image/svg+xml</dc:format>
        <dc:type
           rdf:resource="http://purl.org/dc/dcmitype/StillImage" />
        <dc:title />
      </cc:Work>
    </rdf:RDF>
  </metadata>
  <defs
     id="defs36" />
  <sodipodi:namedview
     pagecolor="#ffffff"
     bordercolor="#666666"
     borderopacity="1"
     objecttolerance="10"
     gridtolerance="10"
     guidetolerance="10"
     inkscape:pageopacity="0"
     inkscape:pageshadow="2"
     inkscape:window-width="1920"
     inkscape:window-height="1137"
     id="namedview34"
     showgrid="false"
     inkscape:zoom="41.7193"
     inkscape:cx="11.595167"
     inkscape:cy="17.701984"
     inkscape:window-x="1912"
     inkscape:window-y="-8"
     inkscape:window-maximized="1"
     inkscape:current-layer="svg32" />
  <rect
     x="0"
     y="0"
     width="32"
     height="32"
     fill="#008"
     id="rect24"
     style="fill:#000088;fill-opacity:0" />
  <path
     style="fill:none;fill-opacity:1;stroke:#ffffff;stroke-width:3;stroke-linecap:butt;stroke-linejoin:miter;stroke-opacity:1;stroke-miterlimit:4;stroke-dasharray:none"
     d="m 4.1355932,15.966102 c 0,0 5.4237288,-6.20339 12.0000008,-6.101695 6.576271,0.101695 11.559322,6.033898 11.559322,6.033898 0,0 -2.745763,6 -11.423729,6.101695 C 7.5932203,22.101695 4.1355932,15.966102 4.1355932,15.966102 Z"
     id="outline1"
     inkscape:connector-curvature="0"
     inkscape:label="" />
  <path
     style="fill:#ffffff;fill-opacity:1;stroke:none;stroke-width:1px;stroke-linecap:butt;stroke-linejoin:miter;stroke-opacity:1"
     d="m 4.1355932,15.966102 c 0,0 5.423728,-6.2033901 11.9999998,-6.1016951 6.576271,0.101695 11.559322,6.0338981 11.559322,6.0338981 0,0 -2.745763,6 -11.423729,6.101695 C 7.5932202,22.101695 4.1355932,15.966102 4.1355932,15.966102 Z"
     id="fill"
     inkscape:connector-curvature="0"
     inkscape:label="" />
  <g
     class="lock"
     style="fill-rule: evenodd; transform: translate(0px, -2px)"
     id="g30"
     fill="#000">
    <path
       d="             M 30 22             c 1 0, 2 1, 2 2             v 4             c 0 1, -1 2, -2 2             h -7             c -1 0, -2 -1, -2 -2             v -4             c 0 -1, 1 -2, 2 -2             v -1             c 0 -2, 2 -3.5, 3.5 -3.5              c 2.5 0, 3.5 2.5, 3.5 3.5             v 1             Z              M 25 21             c 0 -1, 1 -1.5, 1.5 -1.5             c .5 0, 1.5 .5, 1.5 1.5             v 1             h -3             v -1             Z"
       id="path28" />
  </g>
  <g
     id="layer1"
     inkscape:label="middle"
     style="display:inline;opacity:1"
     inkscape:groupmode="layer">
    <path
       style="fill:#00a8ff;fill-opacity:1;stroke:#000000;stroke-width:1.02918112px;stroke-linecap:butt;stroke-linejoin:miter;stroke-opacity:1"
       d="m 13.488058,10.172227 c 0,0 -0.606702,0.577569 -0.538905,3.88088 0.05898,2.873784 0.921431,5.825346 2.991275,5.877994 2.369776,-0.04304 2.990875,-2.966914 2.974827,-5.98571 -0.01678,-3.156105 -0.499192,-3.74124 -0.499192,-3.74124"
       id="path42"
       inkscape:connector-curvature="0"
       sodipodi:nodetypes="cscsc" />
    <path
       style="fill:#000012;fill-opacity:0.92964825;stroke:none;stroke-width:1.02918112px;stroke-linecap:butt;stroke-linejoin:miter;stroke-opacity:1"
       d="m 15.148864,9.7934724 c 0,0 -0.733132,1.7175886 -0.637253,3.8502706 0.09588,2.13268 0.452516,4.356401 1.459244,4.407179 0.91085,-0.05078 1.47478,-2.011624 1.527042,-4.398093 0.04794,-2.189091 -0.695122,-3.8847455 -0.695122,-3.8847455"
       id="iris"
       inkscape:connector-curvature="0"
       sodipodi:nodetypes="cscsc"
       inkscape:label="" />
  </g>
  <path
     style="fill:none;stroke:#000000;stroke-width:1px;stroke-linecap:butt;stroke-linejoin:miter;stroke-opacity:1;fill-opacity:1"
     d="m 4.1355932,15.966102 c 0,0 5.4237288,-6.2033901 12.0000008,-6.1016951 6.576271,0.101695 11.559322,6.0338981 11.559322,6.0338981 0,0 -2.745763,6 -11.423729,6.101695 C 7.5932203,22.101695 4.1355932,15.966102 4.1355932,15.966102 Z"
     id="outline2"
     inkscape:connector-curvature="0"
     inkscape:label="#path44" />
</svg>
