<svg xmlns="http://www.w3.org/2000/svg" viewBox="0 0 32 32" width="32" height="32" class="heart-image" fill="currentColor">
    <g class="heart">
        <path d="M21,5.5 C24.8659932,5.5 28,8.63400675 28,12.5 C28,18.2694439 24.2975093,23.1517313 17.2206059,27.1100183 C16.4622493,27.5342993 15.5379984,27.5343235 14.779626,27.110148 C7.70250208,23.1517462 4,18.2694529 4,12.5 C4,8.63400691 7.13400681,5.5 11,5.5 C12.829814,5.5 14.6210123,6.4144028 16,7.8282366 C17.3789877,6.4144028 19.170186,5.5 21,5.5 Z" />
    </g>
    <g class="delete">
        <line x1="5" y1="27" x2="28" y2="4" stroke-width="3" stroke="white" />
    </g>

    <defs>
        <mask id="lock-hole-mask">
            <rect width="100%" height="100%" fill="white" />
        
            <path fill="black" d="
                M 23 21
                c 0 -1, 1 -1.5, 1.5 -1.5
                c .5 0, 1.5 .5, 1.5 1.5
                v 1
                h -3
                v -1
                Z"
            />
        </mask>
    </defs>

    <g class="lock" fill="#000">
        <path mask="url(#lock-hole-mask)" d="
            M 28 22
            c 1 0, 2 1, 2 2
            v 4
            c 0 1, -1 2, -2 2
            h -7
            c -1 0, -2 -1, -2 -2
            v -4
            c 0 -1, 1 -2, 2 -2
            v -1
            c 0 -2, 2 -3.5, 3.5 -3.5 
            c 2.5 0, 3.5 2.5, 3.5 3.5
            v 1
            Z"
        />
    </g>   
</svg>
