                        <svg viewBox="0 0 12 12" width=28 height=28>
                            <path d="M2,6 C0.8954305,6 0,5.1045695 0,4 C0,2.8954305 0.8954305,2 2,2 C3.1045695,2 4,2.8954305 4,4 C4,5.1045695 3.1045695,6 2,6 Z M10,6 C8.8954305,6 8,5.1045695 8,4 C8,2.8954305 8.8954305,2 10,2 C11.1045695,2 12,2.8954305 12,4 C12,5.1045695 11.1045695,6 10,6 Z M2.1109127,8.8890873 C1.72038841,8.498563 1.72038841,7.86539803 2.1109127,7.47487373 C2.501437,7.08434944 3.13460197,7.08434944 3.52512627,7.47487373 C4.89196129,8.84170876 7.10803871,8.84170876 8.47487373,7.47487373 C8.86539803,7.08434944 9.498563,7.08434944 9.8890873,7.47487373 C10.2796116,7.86539803 10.2796116,8.498563 9.8890873,8.8890873 C7.74120369,11.0369709 4.25879631,11.0369709 2.1109127,8.8890873 Z" />
                        </svg>
