<svg class="pixiv-icon icon-button grey-icon" xmlns="http://www.w3.org/2000/svg" width="50" height="50" viewBox="-2 6 50 50" fill="currentColor">
    <path d="M35.93 16.864a14.682 14.682 0 0 1 5.087 11.185c.013 4.453-2.118 8.348-5.424 10.957-3.306 2.624-7.75 4.076-12.636 4.076-5.56 0-10.718-2.023-10.718-2.023v6.527c.953.279 2.517.876 1.524 1.869H6.24c-.983-.983.46-1.562 1.55-1.87V19.918c-2.53 1.943-3.827 3.627-4.49 4.877.768 2.447-.681 2.326-.681 2.326L0 22.965s9.294-10.537 22.957-10.537c5.242 0 9.753 1.623 12.973 4.436zm-3.986 19.958c2.286-2.275 3.57-5.241 3.584-8.843-.011-3.696-1.213-6.876-3.413-9.27-2.205-2.379-5.465-3.947-9.617-3.95-3.418-.007-7.65 1.135-10.259 2.988v20.758c2.378 1.17 5.98 1.999 10.259 1.996 3.835.003 7.16-1.424 9.446-3.68zM47.67 12.428"/>
</svg>
