                    <svg width="32" height="32" viewBox="10 5 80 60">
                        <path d="M52.084,56.25H43.75c-1.151,0-2.083-0.932-2.083-2.083s0.932-2.084,2.083-2.084h8.334  c1.151,0,2.083,0.933,2.083,2.084S53.235,56.25,52.084,56.25z"></path>
                        <path d="M47.917,12.5c-1.151,0-2.083-0.932-2.083-2.083V2.083C45.834,0.932,46.766,0,47.917,0S50,0.932,50,2.083  v8.333C50,11.568,49.068,12.5,47.917,12.5z"></path>
                        <path d="M29.167,31.25h-8.333c-1.151,0-2.084-0.932-2.084-2.083s0.933-2.084,2.084-2.084h8.333  c1.151,0,2.083,0.933,2.083,2.084S30.318,31.25,29.167,31.25z"></path>
                        <path d="M34.375,17.708c-0.532,0-1.065-0.203-1.473-0.61l-5.895-5.892c-0.813-0.814-0.813-2.132,0-2.946  c0.813-0.814,2.132-0.814,2.946,0l5.895,5.892c0.813,0.814,0.813,2.132,0,2.946C35.441,17.505,34.908,17.708,34.375,17.708z"></path>
                        <path d="M61.459,17.708c-0.533,0-1.066-0.203-1.474-0.61c-0.813-0.813-0.813-2.132,0-2.946l5.893-5.895  c0.813-0.814,2.132-0.814,2.945,0c0.814,0.814,0.814,2.132,0,2.946l-5.892,5.895C62.524,17.505,61.991,17.708,61.459,17.708z"></path>
                        <path d="M75,31.25h-8.333c-1.151,0-2.083-0.932-2.083-2.083s0.932-2.084,2.083-2.084H75  c1.151,0,2.084,0.933,2.084,2.084S76.151,31.25,75,31.25z"></path>
                        <path d="M52.084,58.333H43.75c-1.151,0-2.083,0.933-2.083,2.084S42.599,62.5,43.75,62.5h1.042  c0,1.151,0.932,2.083,2.083,2.083h2.084c1.151,0,2.083-0.932,2.083-2.083h1.042c1.151,0,2.083-0.932,2.083-2.083  S53.235,58.333,52.084,58.333z"></path>
                        <path d="M58.655,39.01c2.38-2.596,3.845-6.045,3.845-9.843c0-8.055-6.529-14.583-14.583-14.583  s-14.583,6.529-14.583,14.583c0,3.674,1.369,7.021,3.61,9.584c0.975,1.097,4.723,5.54,4.723,9.166c0,1.151,0.932,2.083,2.083,2.083  h8.334c1.151,0,2.083-0.932,2.083-2.083V47.8C54.237,44.439,57.441,40.416,58.655,39.01z"></path>
                    </svg>
