<svg xmlns="http://www.w3.org/2000/svg"
    class="menu-button grey-icon icon-button" width="32" height="32" viewbox="0 0 32 32" style="fill: currentColor; transform-origin: 16px 16px;">
    <path d="
    m 27,17.88
    l 0,-4.112
    l -2.52,-0.4224
    c -0.1872,-0.704 -0.4672,-1.3568 -0.7936,-1.92
    l 1.488,-2.056
    l -2.896,-2.944
    l -2.096,1.4528
    c -0.608,-0.328 -1.264,-0.608 -1.9136,-0.7952
    l -0.4144,-2.4832
    l -4.1088,0
    l -0.4208,2.5248
    c -0.6992,0.1872 -1.3056,0.4688 -1.9136,0.7952
    l -2.0512,-1.448
    l -2.9408,2.896
    l 1.4944,2.0592
    c -0.32,0.608 -0.6016,1.264 -0.7888,1.9648
    l -2.5248,0.376
    l 0,4.112
    l 2.52,0.4224
    c 0.1872,0.7008 0.4672,1.3088 0.7936,1.9168
    l -1.488,2.104
    l 2.8944,2.9008
    l 2.0992,-1.5008
    c 0.608,0.328 1.2592,0.608 1.9584,0.7952
    l 0.416,2.4816
    l 4.1056,0
    l 0.4208,-2.5248
    c 0.6528,-0.1872 1.3072,-0.4688 1.9136,-0.7952
    l 2.104,1.496
    l 2.896,-2.8992
    l -1.496,-2.104
    c 0.3248,-0.608 0.608,-1.216 0.792,-1.92
    l 2.4704,-0.368
    l 0,-0.0048
    z
    m -11.2,2.2512
    c -2.3808,0 -4.2928,-1.92 -4.2928,-4.304
    s 1.96,-4.304 4.2928,-4.304
    c 2.3328,0 4.2928,1.9168 4.2928,4.304
    c 0,2.384 -1.912,4.3008 -4.2928,4.3008
    l 0,0.0032
    z"/>
</svg>

