<?xml version="1.0" encoding="UTF-8" standalone="no"?>
<svg
   xmlns:dc="http://purl.org/dc/elements/1.1/"
   xmlns:cc="http://creativecommons.org/ns#"
   xmlns:rdf="http://www.w3.org/1999/02/22-rdf-syntax-ns#"
   xmlns:svg="http://www.w3.org/2000/svg"
   xmlns="http://www.w3.org/2000/svg"
   xmlns:sodipodi="http://sodipodi.sourceforge.net/DTD/sodipodi-0.dtd"
   xmlns:inkscape="http://www.inkscape.org/namespaces/inkscape"
   viewBox="0 0 32 32"
   width="32"
   height="32"
   class="eye-image"
   fill="currentColor"
   version="1.1"
   id="svg32"
   sodipodi:docname="eye-icon.svg"
   inkscape:version="0.92.3 (2405546, 2018-03-11)">
  <metadata
     id="metadata38">
    <rdf:RDF>
      <cc:Work
         rdf:about="">
        <dc:format>image/svg+xml</dc:format>
        <dc:type
           rdf:resource="http://purl.org/dc/dcmitype/StillImage" />
        <dc:title />
      </cc:Work>
    </rdf:RDF>
  </metadata>
  <defs
     id="defs36">
    <mask
       maskUnits="userSpaceOnUse"
       id="mask1075">
      <g
         inkscape:label="eye-mask"
         style="display:inline"
         id="g1081">
        <rect
           y="1.5105144"
           x="1.5820016"
           height="28.811605"
           width="29.818333"
           id="rect1077"
           style="fill:#020202;fill-opacity:1;stroke:none;stroke-width:3;stroke-miterlimit:4;stroke-dasharray:none;stroke-opacity:1" />
        <path
           inkscape:label="outline1-mask"
           inkscape:connector-curvature="0"
           id="path1079"
           d="m 4.1355932,15.966102 c 0,0 5.4237288,-6.2033899 12.0000008,-6.1016949 6.576271,0.101695 11.559322,6.0338979 11.559322,6.0338979 0,0 -2.745763,6 -11.423729,6.101695 C 7.5932203,22.101695 4.1355932,15.966102 4.1355932,15.966102 Z"
           style="display:inline;fill:#ffffff;fill-opacity:1;stroke:#ffffff;stroke-width:0.5;stroke-linecap:butt;stroke-linejoin:miter;stroke-miterlimit:4;stroke-dasharray:none;stroke-opacity:1" />
      </g>
    </mask>
    <filter
       inkscape:collect="always"
       style="color-interpolation-filters:sRGB"
       id="filter4556"
       x="-0.074548502"
       width="1.149097"
       y="-0.1446944"
       height="1.2893888">
      <feGaussianBlur
         inkscape:collect="always"
         stdDeviation="0.73179676"
         id="feGaussianBlur4558" />
    </filter>
  </defs>
  <sodipodi:namedview
     pagecolor="#ffffff"
     bordercolor="#666666"
     borderopacity="1"
     objecttolerance="10"
     gridtolerance="10"
     guidetolerance="10"
     inkscape:pageopacity="0"
     inkscape:pageshadow="2"
     inkscape:window-width="1920"
     inkscape:window-height="1137"
     id="namedview34"
     showgrid="false"
     inkscape:zoom="41.7193"
     inkscape:cx="14.867981"
     inkscape:cy="15.247435"
     inkscape:window-x="1912"
     inkscape:window-y="-8"
     inkscape:window-maximized="1"
     inkscape:current-layer="svg32" />
  <rect
     x="0"
     y="0"
     width="32"
     height="32"
     id="bg"
     style="display:none;fill:#000088;fill-opacity:1"
     inkscape:label="bg" />
  <path
     inkscape:label="shadow"
     inkscape:connector-curvature="0"
     id="shadow"
     d="m 4.1355932,15.966102 c 0,0 5.4237288,-6.20339 12.0000008,-6.101695 6.576271,0.101695 11.559322,6.033898 11.559322,6.033898 0,0 -2.745763,6 -11.423729,6.101695 C 7.5932203,22.101695 4.1355932,15.966102 4.1355932,15.966102 Z"
     style="display:inline;fill:none;fill-opacity:1;stroke:#fbfbfb;stroke-width:3.77952756;stroke-linecap:butt;stroke-linejoin:miter;stroke-opacity:1;filter:url(#filter4556);stroke-miterlimit:4;stroke-dasharray:none" />
  <path
     inkscape:label="outline1"
     inkscape:connector-curvature="0"
     id="outline1"
     class="outline1"
     d="m 4.1355932,15.966102 c 0,0 5.4237288,-6.2033899 12.0000008,-6.1016949 6.576271,0.101695 11.559322,6.0338979 11.559322,6.0338979 0,0 -2.745763,6 -11.423729,6.101695 C 7.5932203,22.101695 4.1355932,15.966102 4.1355932,15.966102 Z"
     style="display:inline;fill:none;fill-opacity:1;stroke:#ffffff;stroke-width:3;stroke-linecap:butt;stroke-linejoin:miter;stroke-miterlimit:4;stroke-dasharray:none;stroke-opacity:1" />
  <g
     id="eye"
     inkscape:label="eye"
     style="display:inline"
     mask="url(#mask1075)">
    <path
       style="display:inline;fill:#ffffff;fill-opacity:1;stroke:none;stroke-width:1.37283087px;stroke-linecap:butt;stroke-linejoin:miter;stroke-opacity:1"
       d="m 1.5948027,16.654121 c 0,0 6.825353,-9.2904337 15.1010963,-9.1381313 8.27574,0.1523023 14.546535,9.0365953 14.546535,9.0365953 0,0 -3.455336,8.985827 -14.375902,9.13813 C 5.9459657,25.843018 1.5948027,16.654121 1.5948027,16.654121 Z"
       id="fill"
       inkscape:connector-curvature="0"
       inkscape:label="fill" />
    <g
       id="layer1"
       class="middle"
       inkscape:label="middle"
       style="display:inline;opacity:1"
       inkscape:groupmode="layer">
      <path
         style="fill:#00a8ff;fill-opacity:1;stroke:#000000;stroke-width:1.02918112px;stroke-linecap:butt;stroke-linejoin:miter;stroke-opacity:1"
         d="m 15.980909,9.5250445 c -2.223727,-3.144e-4 -3.075583,3.5258445 -3.007786,6.8291555 0.05898,2.873784 0.921431,5.825346 2.991275,5.877994 2.369776,-0.04304 3.052389,-2.967868 2.974827,-5.98571 -0.08375,-3.258728 -0.510428,-6.7210934 -2.958316,-6.7214395 z"
         id="middle-outline"
         inkscape:connector-curvature="0"
         sodipodi:nodetypes="sscss"
         inkscape:label="middle-outline" />
      <path
         style="fill:#000012;fill-opacity:1;stroke:none;stroke-width:1.02918112px;stroke-linecap:butt;stroke-linejoin:miter;stroke-opacity:1"
         d="m 15.939865,11.878838 c -0.822379,0.0033 -1.404285,1.981256 -1.404284,4.065998 10e-7,2.084742 0.499108,4.40718 1.459244,4.407179 0.960136,-1e-6 1.524881,-2.19813 1.527042,-4.398093 0.0022,-2.199963 -0.759623,-4.078404 -1.582002,-4.075084 z"
         id="iris"
         inkscape:connector-curvature="0"
         sodipodi:nodetypes="zzzzz"
         inkscape:label="iris" />
    </g>
  </g>
  <path
     inkscape:label="outline2"
     inkscape:connector-curvature="0"
     id="outline2"
     d="m 4.1355932,15.966102 c 0,0 5.4237288,-6.2033901 12.0000008,-6.1016951 6.576271,0.101695 11.559322,6.0338981 11.559322,6.0338981 0,0 -2.745763,6 -11.423729,6.101695 C 7.5932203,22.101695 4.1355932,15.966102 4.1355932,15.966102 Z"
     style="display:inline;fill:none;fill-opacity:1;stroke:#000000;stroke-width:1px;stroke-linecap:butt;stroke-linejoin:miter;stroke-opacity:1;font-variant-east_asian:normal;opacity:1;vector-effect:none;stroke-miterlimit:4;stroke-dasharray:none;stroke-dashoffset:0" />
</svg>
