<svg xmlns="http://www.w3.org/2000/svg"
    width="18" height="18" viewBox="4 5 22 22" fill="currentColor">
    <path d="
    M 21.965 8.432
    a 7.341 7.341 0 0 1 2.5435 5.5925
    c 0.0065 2.2265 -1.059 4.174 -2.712 5.4785
    c -1.653 1.312 -3.875 2.038 -6.318 2.038
    c -2.78 0 -5.359 -1.0115 -5.359 -1.0115
    v 3.2635
    c 0.4765 0.1395 1.2585 0.438 0.762 0.9345
    H 7.12
    c -0.4915 -0.4915 0.23 -0.781 0.775 -0.935
    V 9.959
    c -1.265 0.9715 -1.9135 1.8135 -2.245 2.4385
    c 0.384 1.2235 -0.3405 1.163 -0.3405 1.163
    L 4 11.4825
    s 4.647 -5.2685 11.4785 -5.2685
    c 2.621 0 4.8765 0.8115 6.4865 2.218
    z
    m -1.993 9.979
    c 1.143 -1.1375 1.785 -2.6205 1.792 -4.4215
    c -0.0055 -1.848 -0.6065 -3.438 -1.7065 -4.635
    c -1.1025 -1.1895 -2.7325 -1.9735 -4.8085 -1.975
    c -1.709 -0.0035 -3.825 0.5675 -5.1295 1.494
    v 10.379
    c 1.189 0.585 2.99 0.9995 5.1295 0.998
    c 3.835.003 3.58 -0.712 4.723 -1.84
    z
    M 23.835 6.214
    "/>
</svg>
