<?xml version="1.0" encoding="UTF-8" standalone="no"?>
<svg
   xmlns:dc="http://purl.org/dc/elements/1.1/"
   xmlns:cc="http://creativecommons.org/ns#"
   xmlns:rdf="http://www.w3.org/1999/02/22-rdf-syntax-ns#"
   xmlns:svg="http://www.w3.org/2000/svg"
   xmlns="http://www.w3.org/2000/svg"
   xmlns:sodipodi="http://sodipodi.sourceforge.net/DTD/sodipodi-0.dtd"
   xmlns:inkscape="http://www.inkscape.org/namespaces/inkscape"
   width="32px"
   height="32px"
   viewBox="0 0 32 32"
   fill="currentColor"
   version="1.1"
   id="svg1420"
   sodipodi:docname="refresh-icon.svg"
   inkscape:version="0.92.3 (2405546, 2018-03-11)">
  <metadata
     id="metadata1426">
    <rdf:RDF>
      <cc:Work
         rdf:about="">
        <dc:format>image/svg+xml</dc:format>
        <dc:type
           rdf:resource="http://purl.org/dc/dcmitype/StillImage" />
      </cc:Work>
    </rdf:RDF>
  </metadata>
  <defs
     id="defs1424" />
  <sodipodi:namedview
     pagecolor="#ffffff"
     bordercolor="#666666"
     borderopacity="1"
     objecttolerance="10"
     gridtolerance="10"
     guidetolerance="10"
     inkscape:pageopacity="0"
     inkscape:pageshadow="2"
     inkscape:window-width="1920"
     inkscape:window-height="1137"
     id="namedview1422"
     showgrid="false"
     inkscape:zoom="20"
     inkscape:cx="15.106191"
     inkscape:cy="12.284971"
     inkscape:window-x="1912"
     inkscape:window-y="-8"
     inkscape:window-maximized="1"
     inkscape:current-layer="svg1420" />
  <path
     d="m 26.276037,5.3768832 c -1.025134,1.0011097 -2.02431,2.0295002 -3.045196,3.0348589 -0.04956,0.058054 -0.106666,-0.00755 -0.14584,-0.040119 C 21.928138,7.2398222 20.508951,6.3760574 18.96837,5.877697 17.193738,5.3037727 15.265759,5.2136254 13.444872,5.6138616 10.203806,6.3062518 7.36529,8.6372987 6.0612647,11.683911 c 0.00146,6.57e-4 0.00293,0.0011 0.0044,0.0018 -0.1085548,0.214135 -0.1701475,0.456213 -0.1701475,0.712685 0,0.871977 0.7068799,1.57881 1.5788103,1.57881 0.7471862,0 1.3726975,-0.519269 1.5365211,-1.216426 0.9324853,-1.981309 2.7767344,-3.5136299 4.9070024,-4.0366749 2.46372,-0.6215932 5.256407,0.062775 7.051336,1.8898429 -1.039766,1.030325 -2.095153,2.045548 -3.130623,3.080121 2.809206,-0.01511 5.619357,-0.0066 8.429036,-0.0043 0.02356,-2.770504 0.0065,-5.5419533 0.0085,-8.3129769 z"
     id="path1416"
     inkscape:connector-curvature="0"
     style="stroke-width:0.0471977" />
  <path
     d="m 23.993462,17.899375 c -0.690029,0 -1.276273,0.442856 -1.491023,1.05973 -4.1e-4,-1.89e-4 -9.03e-4,-3.84e-4 -0.0013,-5.76e-4 -0.901948,2.010149 -2.717172,3.59736 -4.853811,4.161892 -2.491991,0.675447 -5.354578,0.01412 -7.182498,-1.843116 1.034573,-1.027022 2.094115,-2.029973 3.123969,-3.061668 -2.817703,0.0023 -5.6358774,0.0014 -8.45358,4.67e-4 -0.00661,2.765785 -0.00751,5.53105 5.212e-4,8.296835 1.0345736,-1.034101 2.0648989,-2.072451 3.105136,-3.100841 0.6659124,0.650808 1.4046034,1.230444 2.2145168,1.692933 2.583554,1.508958 5.824147,1.821926 8.651289,0.844414 2.712782,-0.910774 5.006402,-2.981856 6.192904,-5.584336 0.172054,-0.252838 0.272633,-0.558065 0.272633,-0.886987 4.6e-5,-0.871882 -0.706833,-1.578763 -1.578764,-1.578763 z"
     id="path1418"
     inkscape:connector-curvature="0"
     style="stroke-width:0.0471977" />
</svg>
