<svg viewBox="0 0 24 24" fill="none" xmlns="http://www.w3.org/2000/svg">
    <g id="SVGRepo_bgCarrier" stroke-width="0"></g>
    <g id="SVGRepo_tracerCarrier" stroke-linecap="round" stroke-linejoin="round"></g>
    <g id="SVGRepo_iconCarrier">
        <path fill-rule="evenodd" clip-rule="evenodd" d="M4.6138 8.54479L4.1875 10.25H2C1.58579 10.25 1.25 10.5858 1.25 11C1.25 11.4142 1.58579 11.75 2 11.75H22C22.4142 11.75 22.75 11.4142 22.75 11C22.75 10.5858 22.4142 10.25 22 10.25H19.8125L19.3862 8.54479C18.8405 6.36211 18.5677 5.27077 17.7539 4.63538C16.9401 4 15.8152 4 13.5653 4H10.4347C8.1848 4 7.05988 4 6.24609 4.63538C5.43231 5.27077 5.15947 6.36211 4.6138 8.54479ZM6.5 21C8.12316 21 9.48826 19.8951 9.88417 18.3963L10.9938 17.8415C11.6272 17.5248 12.3728 17.5248 13.0062 17.8415L14.1158 18.3963C14.5117 19.8951 15.8768 21 17.5 21C19.433 21 21 19.433 21 17.5C21 15.567 19.433 14 17.5 14C15.8399 14 14.4498 15.1558 14.0903 16.7065L13.6771 16.4999C12.6213 15.972 11.3787 15.972 10.3229 16.4999L9.90967 16.7065C9.55023 15.1558 8.16009 14 6.5 14C4.567 14 3 15.567 3 17.5C3 19.433 4.567 21 6.5 21Z" fill="#ffffff" style="--darkreader-inline-fill: var(--darkreader-background-ffffff, #181a1b);" data-darkreader-inline-fill=""></path>
    </g>
</svg>