<?xml version="1.0" encoding="UTF-8" standalone="no"?>
<svg
   xmlns:dc="http://purl.org/dc/elements/1.1/"
   xmlns:cc="http://creativecommons.org/ns#"
   xmlns:rdf="http://www.w3.org/1999/02/22-rdf-syntax-ns#"
   xmlns:svg="http://www.w3.org/2000/svg"
   xmlns="http://www.w3.org/2000/svg"
   xmlns:sodipodi="http://sodipodi.sourceforge.net/DTD/sodipodi-0.dtd"
   xmlns:inkscape="http://www.inkscape.org/namespaces/inkscape"
   viewBox="0 -1 32 32"
   width="32"
   height="32"
   style="fill: currentColor;"
   version="1.1"
   id="svg1390"
   sodipodi:docname="icon-pawoo.svg"
   inkscape:version="0.92.3 (2405546, 2018-03-11)">
  <metadata
     id="metadata1396">
    <rdf:RDF>
      <cc:Work
         rdf:about="">
        <dc:format>image/svg+xml</dc:format>
        <dc:type
           rdf:resource="http://purl.org/dc/dcmitype/StillImage" />
      </cc:Work>
    </rdf:RDF>
  </metadata>
  <defs
     id="defs1394" />
  <sodipodi:namedview
     pagecolor="#ffffff"
     bordercolor="#666666"
     borderopacity="1"
     objecttolerance="10"
     gridtolerance="10"
     guidetolerance="10"
     inkscape:pageopacity="0"
     inkscape:pageshadow="2"
     inkscape:window-width="1920"
     inkscape:window-height="1017"
     id="namedview1392"
     showgrid="false"
     inkscape:zoom="7.375"
     inkscape:cx="-6.0338983"
     inkscape:cy="16"
     inkscape:window-x="1912"
     inkscape:window-y="363"
     inkscape:window-maximized="1"
     inkscape:current-layer="svg1390" />
  <path
     d="m 11.649136,19.713451 c -0.11698,-0.265452 -0.183394,-0.5694 -0.183394,-0.892389 0,-1.037356 0.685077,-1.878298 1.530163,-1.878298 0.845086,0 1.530163,0.840942 1.530163,1.878298 0,0.780804 -0.388122,1.450333 -0.940463,1.733742 0.664633,-0.0047 1.381183,-0.239185 1.824417,-0.777004 0.447758,-0.543309 0.646208,-1.475537 0.646208,-2.365462 0,-1.735575 -1.115241,-3.142537 -2.490962,-3.142537 -1.375721,0 -2.490963,1.406962 -2.490963,3.142537 0,0.819985 0.115212,1.674271 0.522948,2.23383 0.0166,0.02278 0.0339,0.04521 0.05188,0.06728 z M 9.3260037,9.8760135 c 0.7374613,-1.043478 2.2192553,-2.7281773 3.7444713,-3.5697037 1.525217,-0.8415265 3.754812,-1.5438269 6.899676,-1.2869135 3.144864,0.2569133 4.797576,1.5755952 5.614497,2.2322797 0.816921,0.6566845 1.865501,2.0888036 2.470925,3.820683 0.605422,1.731879 1.118332,3.551183 1.112929,6.313279 -0.0054,2.762097 -0.577515,4.997147 -1.985652,6.28514 -0.03559,0.03255 -0.07154,0.06452 -0.107861,0.09589 -1.400452,1.209928 -3.327532,1.54179 -4.896535,0.958961 -1.609687,-0.597941 -1.965856,-1.171804 -2.435725,-2.36074 -0.469868,-1.188936 -0.663579,-3.017731 -0.661048,-4.311236 0.0025,-1.293506 0.0766,-1.427017 0.07789,-2.087406 0.0013,-0.660389 -0.413977,-0.613685 -0.492225,-0.01624 -0.07825,0.597443 -0.124325,1.333456 -0.125205,1.782988 -0.0012,0.571626 0.03439,2.054951 0.11613,2.856341 0.08174,0.801391 0.331964,2.022712 0.583345,2.60754 0.251381,0.584829 0.73193,1.291431 0.73193,1.291431 0,0 -1.086589,0.582292 -3.221293,0.625036 -2.134704,0.04275 -3.327309,0.0263 -5.106108,-0.168496 C 9.8673457,24.75004 7.7098896,24.276331 6.2752113,23.712238 4.8405328,23.148143 4.1164117,22.627299 3.1012063,21.687495 2.0860008,20.74769 1.2708703,19.321762 2.226861,18.658698 c 0.9559908,-0.663064 1.2712546,-0.08157 1.7142775,0.280958 0.2884809,0.236065 0.8557367,0.830398 1.7229436,1.138844 0.8672068,0.308446 1.1322303,0.307122 1.5917872,-0.0032 0.6395115,-0.431779 0.3380569,-2.754705 0.3395726,-3.279718 0.00152,-0.525012 -0.068566,-2.335326 0.3127073,-3.680079 0.3812732,-1.344751 0.6803933,-2.196055 1.4178545,-3.2395325 z"
     id="path1388"
     inkscape:connector-curvature="0"
     style="stroke-width:1.05212903" />
</svg>
