<?xml version="1.0" encoding="UTF-8" standalone="no"?>
<!-- Created with Inkscape (http://www.inkscape.org/) -->

<svg
   xmlns:osb="http://www.openswatchbook.org/uri/2009/osb"
   xmlns:dc="http://purl.org/dc/elements/1.1/"
   xmlns:cc="http://creativecommons.org/ns#"
   xmlns:rdf="http://www.w3.org/1999/02/22-rdf-syntax-ns#"
   xmlns:svg="http://www.w3.org/2000/svg"
   xmlns="http://www.w3.org/2000/svg"
   xmlns:xlink="http://www.w3.org/1999/xlink"
   xmlns:sodipodi="http://sodipodi.sourceforge.net/DTD/sodipodi-0.dtd"
   xmlns:inkscape="http://www.inkscape.org/namespaces/inkscape"
   width="32"
   height="32"
   viewBox="0 0 33.866667 33.866667"
   version="1.1"
   id="svg8"
   inkscape:version="0.92.3 (2405546, 2018-03-11)"
   sodipodi:docname="icon-fanbox.svg">
  <defs
     id="defs2">
    <linearGradient
       id="linearGradient855"
       osb:paint="solid">
      <stop
         style="stop-color:#ffffff;stop-opacity:1;"
         offset="0"
         id="stop853" />
    </linearGradient>
    <linearGradient
       inkscape:collect="always"
       xlink:href="#linearGradient855"
       id="linearGradient857"
       x1="2.2109438"
       y1="376.82077"
       x2="7.2013052"
       y2="376.82077"
       gradientUnits="userSpaceOnUse"
       gradientTransform="matrix(1.0874288,0,0,1.0874288,-0.94927884,-34.992017)" />
  </defs>
  <sodipodi:namedview
     id="base"
     pagecolor="#ffffff"
     bordercolor="#666666"
     borderopacity="1.0"
     inkscape:pageopacity="0.0"
     inkscape:pageshadow="2"
     inkscape:zoom="15.839192"
     inkscape:cx="8.7963713"
     inkscape:cy="9.2071144"
     inkscape:document-units="mm"
     inkscape:current-layer="layer1"
     showgrid="false"
     units="px"
     inkscape:window-width="1920"
     inkscape:window-height="1017"
     inkscape:window-x="1912"
     inkscape:window-y="363"
     inkscape:window-maximized="1"
     scale-x="4" />
  <metadata
     id="metadata5">
    <rdf:RDF>
      <cc:Work
         rdf:about="">
        <dc:format>image/svg+xml</dc:format>
        <dc:type
           rdf:resource="http://purl.org/dc/dcmitype/StillImage" />
        <dc:title />
      </cc:Work>
    </rdf:RDF>
  </metadata>
  <g
     inkscape:label="Layer 1"
     inkscape:groupmode="layer"
     id="layer1"
     transform="translate(0,-364.73332)"
     style="display:inline">
    <path
       style="display:inline;opacity:1;fill:#ffffff;fill-opacity:1;stroke:#000000;stroke-width:0.52225888;stroke-linecap:butt;stroke-linejoin:miter;stroke-miterlimit:4;stroke-dasharray:none;stroke-opacity:1"
       d="m 13.24239,393.0786 c 0,0 0.65945,1.08808 2.0443,0.98917 1.384848,-0.099 1.978353,-1.3189 1.978353,-1.3189 0,0 0.923232,1.18701 2.077271,1.25296 1.154042,0.0659 1.78052,-1.31891 1.78052,-1.31891 0,0 1.759524,1.21256 2.621319,1.00567 0.824932,-0.19804 1.318902,-2.01134 1.318902,-2.01134 0,0 1.266301,1.09645 2.357539,0.34623 1.055123,-0.72541 0.774857,-2.20917 0.774857,-2.20917 0,0 1.067396,0.969 1.829975,0.34621 0.752069,-0.61421 1.055123,-1.66511 1.02215,-2.95104 -0.03297,-1.28593 -2.70375,-7.38586 -3.626982,-9.29826 -0.923232,-1.91242 -3.7259,-7.78153 -6.001007,-8.73774 -2.275108,-0.95621 -5.143721,-1.54971 -8.704758,-0.36269 -3.5610377,1.187 -6.4955961,3.52806 -7.1550474,6.52856 -0.6594514,3.0005 0.168863,9.78319 0.9931772,11.95939 0.8243141,2.17619 1.6226784,4.71568 2.5185435,5.83711 0.6319055,0.79101 1.5330817,1.19571 2.7860407,1.12976 1.252957,-0.0659 1.384847,-1.18701 1.384847,-1.18701 z"
       id="edge"
       inkscape:connector-curvature="0"
       sodipodi:nodetypes="cccccccccssccsscscc"
       inkscape:label="edge" />
    <path
       style="display:inline;fill:url(#linearGradient857);fill-opacity:1;stroke:#000000;stroke-width:0.52225888;stroke-linecap:round;stroke-linejoin:miter;stroke-miterlimit:4;stroke-dasharray:none;stroke-opacity:1"
       d="m 6.006034,376.37907 c 0,0 -1.1657561,0.13989 -2.8910755,-0.69945 -1.4285665,-0.85583 -1.3989077,-2.33152 -1.3989077,-2.33152 0,0 1.05586,-0.4743 2.6932402,0.0853 1.6622006,0.56805 2.2085936,1.1243 2.2085936,1.1243"
       id="path831"
       inkscape:connector-curvature="0"
       sodipodi:nodetypes="cccsc"
       inkscape:label="ear-left" />
    <path
       style="display:inline;fill:#ffffff;fill-opacity:1;stroke:#000000;stroke-width:0.52225888;stroke-linecap:round;stroke-linejoin:miter;stroke-miterlimit:4;stroke-dasharray:none;stroke-opacity:1"
       d="m 19.935821,369.17348 c 0,0 1.15404,-0.70891 1.698088,-1.50025 0.544047,-0.79134 0.989177,-1.36836 0.989177,-1.36836 0,0 0.873772,0.36269 1.005663,1.23647 0.13189,0.87377 -0.379185,1.54971 -0.741882,1.92889 -0.362699,0.37918 -0.89026,0.64297 -0.89026,0.64297"
       id="path833"
       inkscape:connector-curvature="0"
       inkscape:label="ear-right" />
    <path
       style="fill:none;stroke:#000000;stroke-width:0.52225888;stroke-linecap:round;stroke-linejoin:miter;stroke-miterlimit:4;stroke-dasharray:none;stroke-opacity:1"
       d="m 8.2676015,385.93827 3.5672135,-3.80036 c 0,0 1.892053,-0.025 1.468854,3.07759 -0.355455,2.60589 -2.098362,2.89107 -2.098362,2.89107"
       id="path835"
       inkscape:connector-curvature="0"
       sodipodi:nodetypes="ccsc"
       inkscape:label="hand-left" />
    <path
       style="fill:#ffffff;fill-opacity:1;stroke:#000000;stroke-width:0.52225888;stroke-linecap:round;stroke-linejoin:round;stroke-miterlimit:4;stroke-dasharray:none;stroke-opacity:1"
       d="m 25.823892,378.12771 c 0,0 1.515484,-2.145 2.72787,-2.72787 1.049181,0.0465 1.049181,0.62951 1.049181,2.58797 0,1.95848 -1.352277,3.26412 -2.098363,3.68379"
       id="path837"
       inkscape:connector-curvature="0"
       sodipodi:nodetypes="ccsc"
       inkscape:label="hand-right" />
    <path
       style="display:inline;fill:none;stroke:#000000;stroke-width:0.52225888;stroke-linecap:round;stroke-linejoin:round;stroke-miterlimit:4;stroke-dasharray:none;stroke-opacity:1"
       d="m 9.8297155,376.35576 1.9584695,0.39635 -0.792714,2.12168"
       id="path839"
       inkscape:connector-curvature="0"
       sodipodi:nodetypes="ccc"
       inkscape:label="eye-left-1" />
    <path
       style="fill:none;stroke:#000000;stroke-width:0.52225888;stroke-linecap:round;stroke-linejoin:round;stroke-miterlimit:4;stroke-dasharray:none;stroke-opacity:1"
       d="m 9.9696055,377.68472 1.5154825,-0.75774"
       id="path841"
       inkscape:connector-curvature="0"
       sodipodi:nodetypes="cc"
       inkscape:label="eye-left-2" />
    <path
       style="fill:none;stroke:#000000;stroke-width:0.52225888;stroke-linecap:round;stroke-linejoin:round;stroke-miterlimit:4;stroke-dasharray:none;stroke-opacity:1"
       d="m 20.554673,372.76523 -1.025866,1.63206 1.608745,0.9326"
       id="path843"
       inkscape:connector-curvature="0"
       inkscape:label="eye-right-1"
       sodipodi:nodetypes="ccc" />
    <path
       style="fill:none;stroke:#010012;stroke-width:0.52225888;stroke-linecap:round;stroke-linejoin:round;stroke-miterlimit:4;stroke-dasharray:none;stroke-opacity:1"
       d="m 21.417333,373.88435 -1.888526,0.51294"
       id="path845"
       inkscape:connector-curvature="0"
       inkscape:label="eye-right-2"
       sodipodi:nodetypes="cc" />
    <path
       style="fill:none;stroke:#000000;stroke-width:0.52225888;stroke-linecap:butt;stroke-linejoin:miter;stroke-miterlimit:4;stroke-dasharray:none;stroke-opacity:0.95959598"
       d="m 15.471974,376.26249 c -0.163205,1.23571 -0.606192,0.97924 -0.373041,2.28489 0.233151,1.30564 1.049181,1.21238 1.398908,1.0725 0.349728,-0.13989 1.072496,-0.67615 0.839345,-1.8419 -0.233152,-1.16575 -1.165758,-0.74609 -1.865212,-1.51549 z"
       id="path847"
       inkscape:connector-curvature="0"
       inkscape:label="mouth-1"
       sodipodi:nodetypes="ccscc" />
    <path
       style="fill:none;stroke:#000003;stroke-width:0.52225888;stroke-linecap:round;stroke-linejoin:miter;stroke-miterlimit:4;stroke-dasharray:none;stroke-opacity:1"
       d="m 13.933178,376.42571 c 0,0 -0.116577,0.67613 0.442987,0.9326 0.559562,0.25647 1.072496,-0.83935 1.072496,-0.83935"
       id="path849"
       inkscape:connector-curvature="0"
       inkscape:label="mouth-2"
       sodipodi:nodetypes="csc" />
    <path
       style="fill:none;stroke:#000000;stroke-width:0.52225888;stroke-linecap:round;stroke-linejoin:miter;stroke-miterlimit:4;stroke-dasharray:none;stroke-opacity:1"
       d="m 16.800938,375.60967 c 0,0 0.559563,0.61784 -0.09326,0.94425 -0.652824,0.32642 -1.235703,-0.29143 -1.235703,-0.29143"
       id="path851"
       inkscape:connector-curvature="0"
       inkscape:label="mouth-3"
       sodipodi:nodetypes="csc" />
  </g>
</svg>
